ffmpeg started on 2026-03-28 at 16:00:17
Report written to "D:\Convert\FFMetrics\reports\ssim_report-6.txt"
Log level: 32
Command line:
ffmpeg -hide_banner -nostdin -r 24000/1001 -i "F:\\\xc0\xed\xe8\xec\xe5\\\xce\xed\xe3\xee\xe8\xed\xe3\xe8\\!_40_\xce\xf1\xe5\xed\xfc_2025\\JamClub\\\xcc\xeb\xe0\xe4\xf8\xe0\xff \xf1\xe5\xf1\xf2\xf0\xe0 \xec\xee\xe5\xe3\xee \xe4\xf0\xf3\xe3\xe0 \xe4\xee\xf1\xe0\xe6\xe4\xe0\xe5\xf2\\JamClub_Tomodachi_no_Imouto_ga_Ore_ni_dake_Uzai_05_1080p_HEVC.mkv" -r 24000/1001 -i "F:\\\xc0\xed\xe8\xec\xe5\\\xce\xed\xe3\xee\xe8\xed\xe3\xe8\\!_40_\xce\xf1\xe5\xed\xfc_2025\\JamClub\\\xcc\xeb\xe0\xe4\xf8\xe0\xff \xf1\xe5\xf1\xf2\xf0\xe0 \xec\xee\xe5\xe3\xee \xe4\xf0\xf3\xe3\xe0 \xe4\xee\xf1\xe0\xe6\xe4\xe0\xe5\xf2\\JamClub_Tomodachi_no_Imouto_ga_Ore_ni_dake_Uzai_05_1080p.mp4" -lavfi "[0:v]settb=AVTB,setpts=PTS-STARTPTS,format=pix_fmts=yuv420p10le,fps=24000/1001,scale=1920:1080:flags=lanczos:param0=3:out_range=limited:out_color_matrix=bt709:out_chroma_loc=left,setsar=1/1,setdar=(1920/1080)*(1/1),colorspace=format=yuv420p10:range=tv:primaries=bt709:trc=bt709:space=bt709:fast=0[main];[1:v]settb=AVTB,setpts=PTS-STARTPTS,format=pix_fmts=yuv420p,fps=24000/1001,scale=1920:1080:flags=lanczos:param0=3:out_range=limited:out_color_matrix=bt709:out_chroma_loc=left,setsar=1/1,setdar=(1920/1080)*(1/1),colorspace=format=yuv420p:range=tv:primaries=bt709:trc=bt709:space=bt709:fast=0[ref];[main][ref]ssim=eof_action=endall:stats_file='D\\:/Convert/FFMetrics/logs/ssim_logfile-6.txt'" -f null -
Input #0, matroska,webm, from 'F:\Аниме\Онгоинги\!_40_Осень_2025\JamClub\Младшая сестра моего друга досаждает\JamClub_Tomodachi_no_Imouto_ga_Ore_ni_dake_Uzai_05_1080p_HEVC.mkv':
  Metadata:
    COMPATIBLE_BRANDS: isomiso2avc1mp41
    MAJOR_BRAND     : isom
    MINOR_VERSION   : 512
    ENCODER         : Lavf61.7.100
  Duration: 00:23:49.40, start: -0.021000, bitrate: 804 kb/s
  Stream #0:0: Video: hevc (Main 10), yuv420p10le(tv, bt709, progressive), 1920x1080 [SAR 1:1 DAR 16:9], 23.98 fps, 23.98 tbr, 1k tbn (default)
      Metadata:
        HANDLER_NAME    : VideoHandler
        VENDOR_ID       : [0][0][0][0]
        ENCODER         : Lavc61.19.100 libx265
        BPS             : 608144
        DURATION        : 00:23:49.302708333
        NUMBER_OF_FRAMES: 34269
        NUMBER_OF_BYTES : 108652690
        _STATISTICS_WRITING_APP: mkvpropedit v94.0 ('Initiate') 64-bit
        _STATISTICS_WRITING_DATE_UTC: 2026-03-28 10:26:27
        _STATISTICS_TAGS: BPS DURATION NUMBER_OF_FRAMES NUMBER_OF_BYTES
  Stream #0:1(eng): Audio: aac (LC), 48000 Hz, stereo, fltp (default)
      Metadata:
        HANDLER_NAME    : SoundHandler
        VENDOR_ID       : [0][0][0][0]
        ENCODER         : Lavc61.19.100 aac
        BPS             : 192178
        DURATION        : 00:23:49.379000000
        NUMBER_OF_FRAMES: 67003
        NUMBER_OF_BYTES : 34337030
        _STATISTICS_WRITING_APP: mkvpropedit v94.0 ('Initiate') 64-bit
        _STATISTICS_WRITING_DATE_UTC: 2026-03-28 10:26:27
        _STATISTICS_TAGS: BPS DURATION NUMBER_OF_FRAMES NUMBER_OF_BYTES
Input #1, mov,mp4,m4a,3gp,3g2,mj2, from 'F:\Аниме\Онгоинги\!_40_Осень_2025\JamClub\Младшая сестра моего друга досаждает\JamClub_Tomodachi_no_Imouto_ga_Ore_ni_dake_Uzai_05_1080p.mp4':
  Metadata:
    major_brand     : isom
    minor_version   : 512
    compatible_brands: isomiso2avc1mp41
    encoder         : Lavf60.16.100
  Duration: 00:23:49.38, start: 0.000000, bitrate: 3229 kb/s
  Stream #1:0[0x1](und): Video: h264 (High) (avc1 / 0x31637661), yuv420p(tv, bt709, progressive), 1920x1080 [SAR 1:1 DAR 16:9], 3031 kb/s, 23.98 fps, 23.98 tbr, 90k tbn (default)
      Metadata:
        handler_name    : VideoHandler
        vendor_id       : [0][0][0][0]
  Stream #1:1[0x2](eng): Audio: aac (LC) (mp4a / 0x6134706D), 48000 Hz, stereo, fltp, 191 kb/s (default)
      Metadata:
        handler_name    : SoundHandler
        vendor_id       : [0][0][0][0]
Stream mapping:
  Stream #0:0 (hevc) -> settb:default
  Stream #1:0 (h264) -> settb:default
  ssim:default -> Stream #0:0 (wrapped_avframe)
  Stream #0:1 -> #0:1 (aac (native) -> pcm_s16le (native))
Output #0, null, to 'pipe:':
  Metadata:
    COMPATIBLE_BRANDS: isomiso2avc1mp41
    MAJOR_BRAND     : isom
    MINOR_VERSION   : 512
    encoder         : Lavf61.7.100
  Stream #0:0: Video: wrapped_avframe, yuv420p10le(tv, bt709, progressive), 1920x1080 [SAR 1:1 DAR 16:9], q=2-31, 200 kb/s, 23.98 fps, 23.98 tbn
      Metadata:
        encoder         : Lavc61.19.100 wrapped_avframe
  Stream #0:1(eng): Audio: pcm_s16le, 48000 Hz, stereo, s16, 1536 kb/s (default)
      Metadata:
        HANDLER_NAME    : SoundHandler
        VENDOR_ID       : [0][0][0][0]
        _STATISTICS_TAGS: BPS DURATION NUMBER_OF_FRAMES NUMBER_OF_BYTES
        BPS             : 192178
        DURATION        : 00:23:49.379000000
        NUMBER_OF_FRAMES: 67003
        NUMBER_OF_BYTES : 34337030
        _STATISTICS_WRITING_APP: mkvpropedit v94.0 ('Initiate') 64-bit
        _STATISTICS_WRITING_DATE_UTC: 2026-03-28 10:26:27
        encoder         : Lavc61.19.100 pcm_s16le
frame=  111 fps=0.0 q=-0.0 size=N/A time=00:00:04.62 bitrate=N/A speed=8.95x    frame=  252 fps=241 q=-0.0 size=N/A time=00:00:10.51 bitrate=N/A speed=10.1x    frame=  404 fps=259 q=-0.0 size=N/A time=00:00:16.85 bitrate=N/A speed=10.8x    frame=  579 fps=280 q=-0.0 size=N/A time=00:00:24.14 bitrate=N/A speed=11.7x    frame=  762 fps=295 q=-0.0 size=N/A time=00:00:31.78 bitrate=N/A speed=12.3x    frame=  955 fps=307 q=-0.0 size=N/A time=00:00:39.83 bitrate=N/A speed=12.8x    frame= 1133 fps=313 q=-0.0 size=N/A time=00:00:47.25 bitrate=N/A speed=13.1x    frame= 1307 fps=316 q=-0.0 size=N/A time=00:00:54.51 bitrate=N/A speed=13.2x    frame= 1485 fps=320 q=-0.0 size=N/A time=00:01:01.93 bitrate=N/A speed=13.3x    frame= 1672 fps=323 q=-0.0 size=N/A time=00:01:09.73 bitrate=N/A speed=13.5x    frame= 1859 fps=326 q=-0.0 size=N/A time=00:01:17.53 bitrate=N/A speed=13.6x    frame= 2039 fps=328 q=-0.0 size=N/A time=00:01:25.04 bitrate=N/A speed=13.7x    frame= 2213 fps=329 q=-0.0 size=N/A time=00:01:32.30 bitrate=N/A speed=13.7x    frame= 2392 fps=330 q=-0.0 size=N/A time=00:01:39.76 bitrate=N/A speed=13.8x    frame= 2567 fps=331 q=-0.0 size=N/A time=00:01:47.06 bitrate=N/A speed=13.8x    frame= 2756 fps=333 q=-0.0 size=N/A time=00:01:54.94 bitrate=N/A speed=13.9x    frame= 2921 fps=333 q=-0.0 size=N/A time=00:02:01.83 bitrate=N/A speed=13.9x    frame= 3096 fps=333 q=-0.0 size=N/A time=00:02:09.12 bitrate=N/A speed=13.9x    frame= 3282 fps=334 q=-0.0 size=N/A time=00:02:16.88 bitrate=N/A speed=13.9x    frame= 3467 fps=335 q=-0.0 size=N/A time=00:02:24.60 bitrate=N/A speed=  14x    frame= 3647 fps=336 q=-0.0 size=N/A time=00:02:32.11 bitrate=N/A speed=  14x    frame= 3831 fps=337 q=-0.0 size=N/A time=00:02:39.78 bitrate=N/A speed=  14x    frame= 4014 fps=338 q=-0.0 size=N/A time=00:02:47.41 bitrate=N/A speed=14.1x    frame= 4197 fps=339 q=-0.0 size=N/A time=00:02:55.04 bitrate=N/A speed=14.1x    frame= 4372 fps=339 q=-0.0 size=N/A time=00:03:02.34 bitrate=N/A speed=14.1x    frame= 4549 fps=339 q=-0.0 size=N/A time=00:03:09.73 bitrate=N/A speed=14.1x    frame= 4728 fps=339 q=-0.0 size=N/A time=00:03:17.19 bitrate=N/A speed=14.1x    frame= 4890 fps=338 q=-0.0 size=N/A time=00:03:23.95 bitrate=N/A speed=14.1x    frame= 5065 fps=338 q=-0.0 size=N/A time=00:03:31.25 bitrate=N/A speed=14.1x    frame= 5245 fps=339 q=-0.0 size=N/A time=00:03:38.76 bitrate=N/A speed=14.1x    frame= 5430 fps=339 q=-0.0 size=N/A time=00:03:46.47 bitrate=N/A speed=14.1x    frame= 5614 fps=340 q=-0.0 size=N/A time=00:03:54.15 bitrate=N/A speed=14.2x    frame= 5805 fps=341 q=-0.0 size=N/A time=00:04:02.11 bitrate=N/A speed=14.2x    frame= 5990 fps=341 q=-0.0 size=N/A time=00:04:09.83 bitrate=N/A speed=14.2x    frame= 6175 fps=342 q=-0.0 size=N/A time=00:04:17.54 bitrate=N/A speed=14.3x    frame= 6356 fps=342 q=-0.0 size=N/A time=00:04:25.09 bitrate=N/A speed=14.3x    frame= 6539 fps=342 q=-0.0 size=N/A time=00:04:32.73 bitrate=N/A speed=14.3x    frame= 6715 fps=342 q=-0.0 size=N/A time=00:04:40.07 bitrate=N/A speed=14.3x    frame= 6898 fps=343 q=-0.0 size=N/A time=00:04:47.70 bitrate=N/A speed=14.3x    frame= 7079 fps=343 q=-0.0 size=N/A time=00:04:55.25 bitrate=N/A speed=14.3x    frame= 7272 fps=344 q=-0.0 size=N/A time=00:05:03.30 bitrate=N/A speed=14.3x    frame= 7458 fps=344 q=-0.0 size=N/A time=00:05:11.06 bitrate=N/A speed=14.3x    frame= 7647 fps=345 q=-0.0 size=N/A time=00:05:18.94 bitrate=N/A speed=14.4x    frame= 7835 fps=345 q=-0.0 size=N/A time=00:05:26.78 bitrate=N/A speed=14.4x    frame= 8012 fps=345 q=-0.0 size=N/A time=00:05:34.16 bitrate=N/A speed=14.4x    frame= 8194 fps=345 q=-0.0 size=N/A time=00:05:41.75 bitrate=N/A speed=14.4x    frame= 8373 fps=345 q=-0.0 size=N/A time=00:05:49.22 bitrate=N/A speed=14.4x    frame= 8561 fps=346 q=-0.0 size=N/A time=00:05:57.06 bitrate=N/A speed=14.4x    frame= 8738 fps=346 q=-0.0 size=N/A time=00:06:04.44 bitrate=N/A speed=14.4x    frame= 8916 fps=346 q=-0.0 size=N/A time=00:06:11.87 bitrate=N/A speed=14.4x    frame= 9100 fps=346 q=-0.0 size=N/A time=00:06:19.54 bitrate=N/A speed=14.4x    frame= 9286 fps=346 q=-0.0 size=N/A time=00:06:27.30 bitrate=N/A speed=14.4x    frame= 9467 fps=346 q=-0.0 size=N/A time=00:06:34.85 bitrate=N/A speed=14.4x    frame= 9652 fps=346 q=-0.0 size=N/A time=00:06:42.56 bitrate=N/A speed=14.4x    frame= 9851 fps=347 q=-0.0 size=N/A time=00:06:50.86 bitrate=N/A speed=14.5x    frame=10025 fps=347 q=-0.0 size=N/A time=00:06:58.12 bitrate=N/A speed=14.5x    frame=10208 fps=347 q=-0.0 size=N/A time=00:07:05.75 bitrate=N/A speed=14.5x    frame=10381 fps=347 q=-0.0 size=N/A time=00:07:12.97 bitrate=N/A speed=14.5x    frame=10566 fps=347 q=-0.0 size=N/A time=00:07:20.69 bitrate=N/A speed=14.5x    frame=10750 fps=347 q=-0.0 size=N/A time=00:07:28.36 bitrate=N/A speed=14.5x    frame=10932 fps=347 q=-0.0 size=N/A time=00:07:35.95 bitrate=N/A speed=14.5x    frame=11120 fps=348 q=-0.0 size=N/A time=00:07:43.79 bitrate=N/A speed=14.5x    frame=11296 fps=347 q=-0.0 size=N/A time=00:07:51.13 bitrate=N/A speed=14.5x    frame=11441 fps=347 q=-0.0 size=N/A time=00:07:57.18 bitrate=N/A speed=14.5x    frame=11570 fps=345 q=-0.0 size=N/A time=00:08:02.56 bitrate=N/A speed=14.4x    frame=11730 fps=344 q=-0.0 size=N/A time=00:08:09.23 bitrate=N/A speed=14.4x    frame=11916 fps=345 q=-0.0 size=N/A time=00:08:16.99 bitrate=N/A speed=14.4x    frame=12110 fps=345 q=-0.0 size=N/A time=00:08:25.08 bitrate=N/A speed=14.4x    frame=12285 fps=345 q=-0.0 size=N/A time=00:08:32.38 bitrate=N/A speed=14.4x    frame=12465 fps=345 q=-0.0 size=N/A time=00:08:39.89 bitrate=N/A speed=14.4x    frame=12651 fps=345 q=-0.0 size=N/A time=00:08:47.65 bitrate=N/A speed=14.4x    frame=12834 fps=345 q=-0.0 size=N/A time=00:08:55.28 bitrate=N/A speed=14.4x    frame=13021 fps=346 q=-0.0 size=N/A time=00:09:03.08 bitrate=N/A speed=14.4x    frame=13212 fps=346 q=-0.0 size=N/A time=00:09:11.05 bitrate=N/A speed=14.4x    frame=13392 fps=346 q=-0.0 size=N/A time=00:09:18.55 bitrate=N/A speed=14.4x    frame=13580 fps=346 q=-0.0 size=N/A time=00:09:26.39 bitrate=N/A speed=14.4x    frame=13769 fps=346 q=-0.0 size=N/A time=00:09:34.28 bitrate=N/A speed=14.4x    frame=13954 fps=347 q=-0.0 size=N/A time=00:09:41.99 bitrate=N/A speed=14.5x    frame=14138 fps=347 q=-0.0 size=N/A time=00:09:49.67 bitrate=N/A speed=14.5x    frame=14318 fps=347 q=-0.0 size=N/A time=00:09:57.17 bitrate=N/A speed=14.5x    frame=14501 fps=347 q=-0.0 size=N/A time=00:10:04.81 bitrate=N/A speed=14.5x    frame=14686 fps=347 q=-0.0 size=N/A time=00:10:12.52 bitrate=N/A speed=14.5x    frame=14861 fps=347 q=-0.0 size=N/A time=00:10:19.82 bitrate=N/A speed=14.5x    frame=15030 fps=347 q=-0.0 size=N/A time=00:10:26.87 bitrate=N/A speed=14.5x    frame=15212 fps=347 q=-0.0 size=N/A time=00:10:34.46 bitrate=N/A speed=14.5x    frame=15385 fps=347 q=-0.0 size=N/A time=00:10:41.68 bitrate=N/A speed=14.5x    frame=15568 fps=347 q=-0.0 size=N/A time=00:10:49.31 bitrate=N/A speed=14.5x    frame=15750 fps=347 q=-0.0 size=N/A time=00:10:56.90 bitrate=N/A speed=14.5x    frame=15932 fps=347 q=-0.0 size=N/A time=00:11:04.49 bitrate=N/A speed=14.5x    frame=16111 fps=347 q=-0.0 size=N/A time=00:11:11.96 bitrate=N/A speed=14.5x    frame=16287 fps=347 q=-0.0 size=N/A time=00:11:19.30 bitrate=N/A speed=14.5x    frame=16451 fps=347 q=-0.0 size=N/A time=00:11:26.14 bitrate=N/A speed=14.5x    frame=16627 fps=347 q=-0.0 size=N/A time=00:11:33.48 bitrate=N/A speed=14.5x    frame=16805 fps=346 q=-0.0 size=N/A time=00:11:40.90 bitrate=N/A speed=14.4x    frame=16985 fps=346 q=-0.0 size=N/A time=00:11:48.41 bitrate=N/A speed=14.5x    frame=17164 fps=347 q=-0.0 size=N/A time=00:11:55.88 bitrate=N/A speed=14.5x    frame=17351 fps=347 q=-0.0 size=N/A time=00:12:03.68 bitrate=N/A speed=14.5x    frame=17528 fps=347 q=-0.0 size=N/A time=00:12:11.06 bitrate=N/A speed=14.5x    frame=17708 fps=347 q=-0.0 size=N/A time=00:12:18.57 bitrate=N/A speed=14.5x    frame=17886 fps=347 q=-0.0 size=N/A time=00:12:25.99 bitrate=N/A speed=14.5x    frame=18058 fps=347 q=-0.0 size=N/A time=00:12:33.16 bitrate=N/A speed=14.5x    frame=18242 fps=347 q=-0.0 size=N/A time=00:12:40.84 bitrate=N/A speed=14.5x    frame=18426 fps=347 q=-0.0 size=N/A time=00:12:48.51 bitrate=N/A speed=14.5x    frame=18611 fps=347 q=-0.0 size=N/A time=00:12:56.23 bitrate=N/A speed=14.5x    frame=18799 fps=347 q=-0.0 size=N/A time=00:13:04.07 bitrate=N/A speed=14.5x    frame=18982 fps=347 q=-0.0 size=N/A time=00:13:11.70 bitrate=N/A speed=14.5x    frame=19160 fps=347 q=-0.0 size=N/A time=00:13:19.13 bitrate=N/A speed=14.5x    frame=19334 fps=347 q=-0.0 size=N/A time=00:13:26.38 bitrate=N/A speed=14.5x    frame=19509 fps=347 q=-0.0 size=N/A time=00:13:33.68 bitrate=N/A speed=14.5x    frame=19691 fps=347 q=-0.0 size=N/A time=00:13:41.27 bitrate=N/A speed=14.5x    frame=19865 fps=347 q=-0.0 size=N/A time=00:13:48.53 bitrate=N/A speed=14.5x    frame=20036 fps=347 q=-0.0 size=N/A time=00:13:55.66 bitrate=N/A speed=14.5x    frame=20210 fps=347 q=-0.0 size=N/A time=00:14:02.92 bitrate=N/A speed=14.5x    frame=20381 fps=347 q=-0.0 size=N/A time=00:14:10.05 bitrate=N/A speed=14.5x    frame=20546 fps=346 q=-0.0 size=N/A time=00:14:16.93 bitrate=N/A speed=14.4x    frame=20719 fps=346 q=-0.0 size=N/A time=00:14:24.15 bitrate=N/A speed=14.4x    frame=20879 fps=346 q=-0.0 size=N/A time=00:14:30.82 bitrate=N/A speed=14.4x    frame=21060 fps=346 q=-0.0 size=N/A time=00:14:38.37 bitrate=N/A speed=14.4x    frame=21231 fps=346 q=-0.0 size=N/A time=00:14:45.50 bitrate=N/A speed=14.4x    frame=21413 fps=346 q=-0.0 size=N/A time=00:14:53.10 bitrate=N/A speed=14.4x    frame=21599 fps=346 q=-0.0 size=N/A time=00:15:00.85 bitrate=N/A speed=14.4x    frame=21776 fps=346 q=-0.0 size=N/A time=00:15:08.24 bitrate=N/A speed=14.4x    frame=21952 fps=346 q=-0.0 size=N/A time=00:15:15.58 bitrate=N/A speed=14.4x    frame=22137 fps=346 q=-0.0 size=N/A time=00:15:23.29 bitrate=N/A speed=14.4x    frame=22309 fps=346 q=-0.0 size=N/A time=00:15:30.47 bitrate=N/A speed=14.4x    frame=22490 fps=346 q=-0.0 size=N/A time=00:15:38.02 bitrate=N/A speed=14.4x    frame=22673 fps=346 q=-0.0 size=N/A time=00:15:45.65 bitrate=N/A speed=14.4x    frame=22860 fps=346 q=-0.0 size=N/A time=00:15:53.45 bitrate=N/A speed=14.4x    frame=23040 fps=346 q=-0.0 size=N/A time=00:16:00.96 bitrate=N/A speed=14.4x    frame=23216 fps=346 q=-0.0 size=N/A time=00:16:08.30 bitrate=N/A speed=14.4x    frame=23398 fps=346 q=-0.0 size=N/A time=00:16:15.89 bitrate=N/A speed=14.4x    frame=23579 fps=346 q=-0.0 size=N/A time=00:16:23.44 bitrate=N/A speed=14.4x    frame=23759 fps=346 q=-0.0 size=N/A time=00:16:30.94 bitrate=N/A speed=14.4x    frame=23931 fps=346 q=-0.0 size=N/A time=00:16:38.12 bitrate=N/A speed=14.4x    frame=24116 fps=346 q=-0.0 size=N/A time=00:16:45.83 bitrate=N/A speed=14.4x    frame=24299 fps=346 q=-0.0 size=N/A time=00:16:53.47 bitrate=N/A speed=14.4x    frame=24481 fps=346 q=-0.0 size=N/A time=00:17:01.06 bitrate=N/A speed=14.4x    frame=24671 fps=346 q=-0.0 size=N/A time=00:17:08.98 bitrate=N/A speed=14.4x    frame=24847 fps=346 q=-0.0 size=N/A time=00:17:16.32 bitrate=N/A speed=14.4x    frame=25032 fps=346 q=-0.0 size=N/A time=00:17:24.04 bitrate=N/A speed=14.5x    frame=25225 fps=347 q=-0.0 size=N/A time=00:17:32.09 bitrate=N/A speed=14.5x    frame=25401 fps=347 q=-0.0 size=N/A time=00:17:39.43 bitrate=N/A speed=14.5x    frame=25583 fps=347 q=-0.0 size=N/A time=00:17:47.02 bitrate=N/A speed=14.5x    frame=25767 fps=347 q=-0.0 size=N/A time=00:17:54.69 bitrate=N/A speed=14.5x    frame=25949 fps=347 q=-0.0 size=N/A time=00:18:02.28 bitrate=N/A speed=14.5x    frame=26134 fps=347 q=-0.0 size=N/A time=00:18:10.00 bitrate=N/A speed=14.5x    frame=26325 fps=347 q=-0.0 size=N/A time=00:18:17.97 bitrate=N/A speed=14.5x    frame=26498 fps=347 q=-0.0 size=N/A time=00:18:25.18 bitrate=N/A speed=14.5x    frame=26670 fps=347 q=-0.0 size=N/A time=00:18:32.36 bitrate=N/A speed=14.5x    frame=26844 fps=347 q=-0.0 size=N/A time=00:18:39.61 bitrate=N/A speed=14.5x    frame=27018 fps=347 q=-0.0 size=N/A time=00:18:46.87 bitrate=N/A speed=14.5x    frame=27205 fps=347 q=-0.0 size=N/A time=00:18:54.67 bitrate=N/A speed=14.5x    frame=27384 fps=347 q=-0.0 size=N/A time=00:19:02.14 bitrate=N/A speed=14.5x    frame=27568 fps=347 q=-0.0 size=N/A time=00:19:09.81 bitrate=N/A speed=14.5x    frame=27754 fps=347 q=-0.0 size=N/A time=00:19:17.57 bitrate=N/A speed=14.5x    frame=27929 fps=347 q=-0.0 size=N/A time=00:19:24.87 bitrate=N/A speed=14.5x    frame=28104 fps=347 q=-0.0 size=N/A time=00:19:32.17 bitrate=N/A speed=14.5x    frame=28283 fps=347 q=-0.0 size=N/A time=00:19:39.63 bitrate=N/A speed=14.5x    frame=28466 fps=347 q=-0.0 size=N/A time=00:19:47.26 bitrate=N/A speed=14.5x    frame=28648 fps=347 q=-0.0 size=N/A time=00:19:54.86 bitrate=N/A speed=14.5x    frame=28820 fps=347 q=-0.0 size=N/A time=00:20:02.03 bitrate=N/A speed=14.5x    frame=28992 fps=347 q=-0.0 size=N/A time=00:20:09.20 bitrate=N/A speed=14.5x    frame=29161 fps=347 q=-0.0 size=N/A time=00:20:16.25 bitrate=N/A speed=14.5x    frame=29335 fps=347 q=-0.0 size=N/A time=00:20:23.51 bitrate=N/A speed=14.5x    frame=29521 fps=347 q=-0.0 size=N/A time=00:20:31.27 bitrate=N/A speed=14.5x    frame=29699 fps=347 q=-0.0 size=N/A time=00:20:38.69 bitrate=N/A speed=14.5x    frame=29882 fps=347 q=-0.0 size=N/A time=00:20:46.32 bitrate=N/A speed=14.5x    frame=30055 fps=347 q=-0.0 size=N/A time=00:20:53.54 bitrate=N/A speed=14.5x    frame=30243 fps=347 q=-0.0 size=N/A time=00:21:01.38 bitrate=N/A speed=14.5x    frame=30425 fps=347 q=-0.0 size=N/A time=00:21:08.97 bitrate=N/A speed=14.5x    frame=30608 fps=347 q=-0.0 size=N/A time=00:21:16.60 bitrate=N/A speed=14.5x    frame=30789 fps=347 q=-0.0 size=N/A time=00:21:24.19 bitrate=N/A speed=14.5x    frame=30961 fps=347 q=-0.0 size=N/A time=00:21:31.33 bitrate=N/A speed=14.5x    frame=31141 fps=347 q=-0.0 size=N/A time=00:21:38.83 bitrate=N/A speed=14.5x    frame=31328 fps=347 q=-0.0 size=N/A time=00:21:46.63 bitrate=N/A speed=14.5x    frame=31512 fps=347 q=-0.0 size=N/A time=00:21:54.31 bitrate=N/A speed=14.5x    frame=31688 fps=347 q=-0.0 size=N/A time=00:22:01.69 bitrate=N/A speed=14.5x    frame=31877 fps=347 q=-0.0 size=N/A time=00:22:09.53 bitrate=N/A speed=14.5x    frame=32061 fps=347 q=-0.0 size=N/A time=00:22:17.21 bitrate=N/A speed=14.5x    frame=32238 fps=347 q=-0.0 size=N/A time=00:22:24.59 bitrate=N/A speed=14.5x    frame=32422 fps=347 q=-0.0 size=N/A time=00:22:32.26 bitrate=N/A speed=14.5x    frame=32600 fps=347 q=-0.0 size=N/A time=00:22:39.69 bitrate=N/A speed=14.5x    frame=32790 fps=347 q=-0.0 size=N/A time=00:22:47.61 bitrate=N/A speed=14.5x    frame=32967 fps=347 q=-0.0 size=N/A time=00:22:54.99 bitrate=N/A speed=14.5x    frame=33145 fps=347 q=-0.0 size=N/A time=00:23:02.42 bitrate=N/A speed=14.5x    frame=33325 fps=347 q=-0.0 size=N/A time=00:23:09.93 bitrate=N/A speed=14.5x    frame=33511 fps=347 q=-0.0 size=N/A time=00:23:17.68 bitrate=N/A speed=14.5x    frame=33689 fps=347 q=-0.0 size=N/A time=00:23:25.11 bitrate=N/A speed=14.5x    frame=33868 fps=347 q=-0.0 size=N/A time=00:23:32.57 bitrate=N/A speed=14.5x    frame=34044 fps=347 q=-0.0 size=N/A time=00:23:39.91 bitrate=N/A speed=14.5x    frame=34226 fps=347 q=-0.0 size=N/A time=00:23:47.50 bitrate=N/A speed=14.5x    [Parsed_ssim_16 @ 0000025ab708c4c0] SSIM Y:0.993818 (22.088841) U:0.995425 (23.396009) V:0.994806 (22.845163) All:0.994251 (22.403810)
[out#0/null @ 0000025ab697ae00] video:14725KiB audio:268012KiB subtitle:0KiB other streams:0KiB global headers:0KiB muxing overhead: unknown
frame=34269 fps=347 q=-0.0 Lsize=N/A time=00:23:49.30 bitrate=N/A speed=14.5x    
